<svg xmlns="http://www.w3.org/2000/svg" version="1.1" xmlns:xlink="http://www.w3.org/1999/xlink" xmlns:svgjs="http://svgjs.dev/svgjs" width="1000" height="594" viewBox="0 0 1000 594"><g transform="matrix(1,0,0,1,0.626714494985606,-0.840446808510535)"><svg viewBox="0 0 237 141" data-background-color="#ffffff" preserveAspectRatio="xMidYMid meet" height="594" width="1000" xmlns="http://www.w3.org/2000/svg" xmlns:xlink="http://www.w3.org/1999/xlink"><g id="tight-bounds" transform="matrix(1,0,0,1,-0.14853133531158846,0.19949999999997203)"><svg viewBox="0 0 237.29706267062318 140.60052000000002" height="140.60052000000002" width="237.29706267062318"><g><svg viewBox="0 0 237.29706267062318 140.60052000000002" height="140.60052000000002" width="237.29706267062318"><g><svg viewBox="0 0 237.29706267062318 140.60052000000002" height="140.60052000000002" width="237.29706267062318"><g><path d="M0 140.601v-140.601h237.297v140.601z" fill="#3d3839" stroke="transparent" stroke-width="0" rx="0%" data-fill-palette-color="tertiary"></path><path d="M3.283 137.317v-134.034h230.731v134.034z" fill="#ffffff" stroke="transparent" stroke-width="0" rx="0%" data-fill-palette-color="quaternary"></path><path d="M9.85 130.751v-120.901h217.597v120.901z" fill="#3d3839" stroke="transparent" stroke-width="0" data-fill-palette-color="tertiary"></path></g><g transform="matrix(1,0,0,1,19.699740000000013,19.69974)"><svg viewBox="0 0 197.89758267062317 101.20104000000002" height="101.20104000000002" width="197.89758267062317"><g><svg viewBox="0 0 197.89758267062317 101.20104000000002" height="101.20104000000002" width="197.89758267062317"><g transform="matrix(1,0,0,1,0,0)"><svg width="197.89758267062317" viewBox="3.25 -33.70000076293945 65.9000015258789 33.70000076293945" height="101.20104000000002" data-palette-color="#ffffff"><path d="M14.85-10.9L14.85-10.9 10.95-10.9 10.95 0 3.25 0 3.25-33.7 14.85-33.7Q20.45-33.7 23.93-30.55 27.4-27.4 27.4-22.55L27.4-22.55Q27.4-17 23.78-13.95 20.15-10.9 14.85-10.9ZM13.95-27.55L13.95-27.55 10.95-27.55 10.95-17 13.5-17Q19.6-17 19.6-22.55L19.6-22.55Q19.6-27.55 13.95-27.55ZM58.45 0L58.45 0 43.9 0 43.9-33.7 57-33.7Q62.55-33.7 65.45-31.08 68.34-28.45 68.34-24.4L68.34-24.4Q68.34-21.75 66.95-19.75 65.55-17.75 63.3-17.05L63.3-17.05Q69.15-15.3 69.15-9.15L69.15-9.15Q69.15-5.15 66.27-2.58 63.4 0 58.45 0ZM55.7-27.55L55.7-27.55 51.6-27.55 51.6-20 54.45-20Q57.45-20 58.97-21.1 60.5-22.2 60.5-24L60.5-24Q60.5-27.55 55.7-27.55ZM55.7-13.95L55.7-13.95 51.6-13.95 51.6-6.15 55.65-6.15Q61.35-6.15 61.35-10.05 61.35-13.95 55.7-13.95Z" opacity="1" transform="matrix(1,0,0,1,0,0)" fill="#ffffff" class="undefined-text-0" data-fill-palette-color="quaternary" id="text-0"></path></svg></g></svg></g></svg></g></svg></g><g></g></svg></g><defs></defs></svg><rect width="237.29706267062318" height="140.60052000000002" fill="none" stroke="none" visibility="hidden"></rect></g></svg></g></svg>