<?xml version="1.0" encoding="UTF-8" standalone="no"?>
<!-- Created with Inkscape (http://www.inkscape.org/) -->

<svg
   version="1.1"
   id="svg2"
   width="3333.3333"
   height="2666.6667"
   viewBox="0 0 3333.3333 2666.6667"
   sodipodi:docname="Tiny graphic designer drawing with big pen on computer screen.eps"
   xmlns:inkscape="http://www.inkscape.org/namespaces/inkscape"
   xmlns:sodipodi="http://sodipodi.sourceforge.net/DTD/sodipodi-0.dtd"
   xmlns="http://www.w3.org/2000/svg"
   xmlns:svg="http://www.w3.org/2000/svg">
  <defs
     id="defs6" />
  <sodipodi:namedview
     id="namedview4"
     pagecolor="#ffffff"
     bordercolor="#000000"
     borderopacity="0.25"
     inkscape:showpageshadow="2"
     inkscape:pageopacity="0.0"
     inkscape:pagecheckerboard="0"
     inkscape:deskcolor="#d1d1d1" />
  <g
     id="g8"
     inkscape:groupmode="layer"
     inkscape:label="ink_ext_XXXXXX"
     transform="matrix(1.3333333,0,0,-1.3333333,0,2666.6667)">
    <g
       id="g10"
       transform="scale(0.1)">
      <path
         d="M 25000,0 H 0 V 20000 H 25000 V 0"
         style="fill:#ffffff;fill-opacity:1;fill-rule:nonzero;stroke:none"
         id="path12" />
      <path
         d="m 5519.58,4128.5 c 0,0 -2538.35,6379.3 -711.67,7799.8 1220.96,949.5 2515.12,-1143.6 4059.78,-36.3 1375.21,985.8 -542.07,3469.1 1752.51,4118.7 2411.7,682.9 4387.6,-4847 6411.2,-4082.4 2455.6,927.8 4898.3,-955.6 2787.4,-7812 l -14299.22,12.2"
         style="fill:#d4e8ff;fill-opacity:1;fill-rule:nonzero;stroke:none"
         id="path14" />
      <path
         d="m 11949.5,17654.9 c -121.4,57.9 -247.9,97.4 -375.9,117.6 l 18.3,90.7 c 138.9,-21.9 275.9,-64.7 407,-127.2 z m -1138.7,0 -56.2,77.6 c 123.5,69.8 259.5,115.2 404.3,134.9 l 15.9,-91 c -130.4,-17.8 -252.8,-58.6 -364,-121.5 z m 1746.9,-474.3 c -91.1,100.9 -185.1,190.3 -279.4,265.7 l 69.9,68.4 c 98.5,-78.8 196.4,-171.8 291,-276.6 z m -2251.6,-70.4 -93.5,40.8 c 68.4,122.6 144.3,230.9 225.6,322.1 l 81.9,-57 c -76.8,-86.1 -148.8,-189 -214,-305.9 z m 2698.6,-546.8 c -68.6,114.2 -138.6,221.3 -208.1,318.5 l 88,49.2 c 71,-99.1 142.3,-208.3 212.1,-324.4 z m -2971.8,-143.4 -101.07,22.4 c 36.35,128.6 76.47,249.8 119.07,360.1 l 98.7,-29.8 c -41.8,-107.9 -81,-226.5 -116.7,-352.7 z m 3324.6,-525.8 c -55.9,119.1 -112.4,233 -167.7,338.6 l 94.5,38.7 c 56,-106.7 113,-221.7 169.5,-341.9 z m -3481.2,-199.5 -103.15,13.2 c 21.07,129 44.25,253 68.87,368.7 l 102.42,-17.1 c -24.34,-114.3 -47.27,-237.1 -68.14,-364.8 z m 3781.2,-491.7 c -50.4,124.3 -97.8,237.9 -145.1,347.3 l 97.3,32.8 c 47.6,-110 95.3,-224.1 145.9,-349 z m -3876.02,-244.5 -103.81,8.2 c 12.98,129.2 27.12,254 41.99,371 l 103.58,-10.3 c -14.79,-116.2 -28.84,-240.4 -41.76,-368.9 z m 9336.62,-155.4 c -129,48.1 -259.7,77.9 -388.3,88.5 l 9.7,91.7 c 139.2,-11.4 280.2,-43.5 419.1,-95.3 z m -1137.2,-112.9 -59.7,75.5 c 128.2,79.3 257.6,138 384.8,174.5 l 32.2,-87.6 c -117.3,-33.7 -237.5,-88.3 -357.3,-162.4 z m -4050.3,-189.3 c -51.8,137.1 -94.6,248.9 -134.5,351.8 l 98.6,29.8 c 40,-103.1 82.8,-215.1 134.7,-352.4 z m 5848.6,-114.7 c -100.4,90.9 -204.3,171.1 -308.8,238.4 l 61.3,74.4 c 109.3,-70.3 217.6,-153.9 322.1,-248.5 z M 5546.64,14237.3 c -130.05,57.2 -257.97,93.7 -380.2,108.5 l 14.15,91.3 c 133.49,-16.2 272.27,-55.7 412.49,-117.4 z m 4174.19,-19.3 -104.04,5.5 c 9.03,133.9 17.99,255.5 27.39,371.7 l 103.96,-6.6 c -9.38,-115.8 -18.31,-237.1 -27.31,-370.6 z m 7672.27,-36.2 -80.9,58 c 97.7,106.6 190.3,198.3 283.1,280.4 l 73.7,-65.1 c -90.2,-79.8 -180.4,-169.2 -275.9,-273.3 z m -12970.65,-28.2 -63.22,73.2 c 124.47,83.9 254,144.5 385.01,179.9 l 30.5,-88.1 c -119.16,-32.2 -237.68,-87.7 -352.29,-165 z M 20280,13806.3 c -74.7,107.7 -153,209.6 -232.7,302.8 l 83.1,55.5 c 81.8,-95.5 162,-199.9 238.5,-310.2 z m -14077.48,-4 c -106.51,91.7 -211.26,172.7 -311.3,240.7 l 63.55,73 c 103.24,-70.2 211.06,-153.5 320.46,-247.7 z m 7995.28,-6.4 c -47.8,123.8 -94.7,247.7 -134.3,352.5 l 98.9,29.2 c 39.5,-104.7 86.4,-228.4 134,-352 z m -10310.44,-187.4 -87.84,49.5 c 81.9,113.4 166.34,215.8 250.98,304.4 l 79.62,-59.5 c -81.66,-85.4 -163.34,-184.5 -242.76,-294.4 z m 13018.34,-26 -86.9,50.8 c 87,116.4 164.9,217.2 238.1,308 l 84.8,-53.5 c -72.4,-89.9 -149.6,-189.8 -236,-305.3 z m -7229.65,-106.8 -104.09,4.6 c 7.02,123.1 14,246.2 21.43,371.5 l 104.09,-4.8 c -7.44,-125.2 -14.42,-248.3 -21.43,-371.3 z M 6758.2,13253.2 c -94.57,103.8 -182.6,196.2 -269.12,282.4 l 77.98,61.1 c 87.61,-87.3 176.69,-180.8 272.3,-285.7 z m 13900.3,-100.5 c -56,115.4 -115.3,227.4 -176.1,333.1 l 92.8,41.8 c 61.9,-107.4 122.2,-221.4 179.1,-338.6 z m -6172.4,-57.5 c -47.2,104.7 -96,218.9 -149.1,349.1 l 98,31.3 c 52.8,-129.3 101.1,-242.5 147.9,-346.2 z m 1962.5,-136.2 -87.1,50.6 c 74.1,99.5 150.6,205 228,311.5 l 87.7,-49.8 c -77.6,-106.8 -154.2,-212.3 -228.6,-312.3 z m -12947.97,0 -95.35,37.2 c 57.22,114.5 118.19,227 182.97,337 l 92.42,-42.6 c -63.75,-108.2 -123.73,-218.9 -180.04,-331.6 z m 6129.1,-226.8 -104.01,5.9 c 7.9,108 15.94,229.3 24.57,370.9 l 104.08,-4.9 c -8.66,-142 -16.72,-263.6 -24.64,-371.9 z m -2364.12,-68.5 c -95.36,115.2 -174.82,209.8 -250.09,297.6 l 83.09,55.6 c 75.62,-88.2 155.41,-183.2 251.11,-298.8 z M 20945,12461.1 c -42,119.4 -86.8,236.9 -133.2,349.3 l 98,31.5 c 46.9,-113.7 92.2,-232.6 134.7,-353.4 z m -6086.8,-40.8 c -67.4,92 -134.3,200.3 -204.3,331.1 l 94.2,39.5 c 68,-127.1 132.7,-232 197.6,-320.5 z m 1084.8,-63.3 -76.6,62.5 c 79.1,75.6 163.8,168.9 259,285.3 l 84.4,-54 c -97.7,-119.4 -184.9,-215.4 -266.8,-293.8 z m -12731.7,-87.8 -99.66,26.9 c 41.41,119.7 86.84,238.7 135.03,353.8 l 97.74,-31.9 c -47.5,-113.5 -92.28,-230.8 -133.11,-348.8 z m 12179.9,-198.5 c -81.1,0 -160.8,21.4 -236.6,63.7 l 55.5,77.9 c 114,-63.6 226.2,-63.7 347.3,-13 l 44.8,-83.2 c -71.6,-30.1 -142.6,-45.4 -211,-45.4 z m -7630.29,-7.6 c -84.72,101.1 -172.59,208 -248.31,300.3 l 84.37,54.1 c 75.57,-92.1 163.26,-198.8 247.7,-299.6 z m 1793.14,-74.9 -103.37,11.8 c 16.01,109.9 30.36,230.4 43.86,368.1 l 103.83,-7.9 c -13.62,-139.1 -28.12,-260.8 -44.32,-372 z m 11605.05,-240.1 c -30.9,121.7 -64.2,242.3 -99,358.5 l 100.8,23.6 c 35.1,-117.4 68.7,-239.1 99.9,-361.9 z m -18148.32,-193.8 -102.31,17.6 c 26.99,122.9 57.55,245.5 90.8,364.4 l 101.17,-22.2 c -32.83,-117.3 -63,-238.4 -89.66,-359.8 z m 5276.64,-75.6 c -83.03,81.8 -171.75,175.8 -271.25,287.6 l 81.9,57 c 98.09,-110.2 185.4,-202.8 266.9,-283 z m 1062.15,-224.1 -92.82,41.9 c 47.71,82.6 89.89,197.2 125.36,340.6 l 101.82,-19.6 c -37.91,-153.3 -81.86,-272 -134.36,-362.9 z m -361.6,-219.2 c -144.82,20.2 -249.57,78.5 -394.67,179.1 l 65.87,71.4 c 127.12,-87.9 218.93,-140.7 339.91,-158.9 z m 12326.13,-13 c -21.7,123 -45.5,245.5 -70.8,364.1 l 102.5,17 c 25.4,-119.5 49.4,-243 71.3,-366.9 z m -18423.67,-197.6 -103.71,9.2 c 14.16,124.6 31.42,249.1 51.31,370.1 l 103.14,-13.3 c -19.67,-119.6 -36.74,-242.8 -50.74,-366 z m 18528.87,-535.5 c -13.9,123.7 -29.7,247.3 -46.9,367.3 l 103.4,11.5 c 17.3,-120.8 33.2,-245.2 47.2,-369.7 z m -18578.4,-201 -104.2,1.9 c 2.9,125 8.5,250.3 16.63,372.2 l 104.05,-5.4 c -8.06,-120.8 -13.61,-244.8 -16.48,-368.7 z m 18640.7,-536.4 c -7.2,123.8 -16,248 -26.2,369.1 l 104,6.8 c 10.2,-121.8 19.1,-246.7 26.3,-371.1 z M 2749.33,9345.4 c -6.91,124.8 -11.5,250 -13.63,372.2 l 104.21,1.4 c 2.11,-121.2 6.66,-245.4 13.51,-369 z M 21506.3,8812.6 c -1.3,123.9 -3.9,248.3 -8,369.8 l 104.2,2.7 c 4.1,-122.1 6.7,-247.2 8,-371.7 z M 2816.86,8603.2 c -15.55,124 -29.07,248.7 -40.2,370.6 l 103.88,7.4 c 11.06,-121 24.48,-244.8 39.9,-367.9 z m 18784.84,-533.3 -104.2,2.7 c 4.1,123.8 6.9,248.3 8.3,370 l 104.2,-1 c -1.4,-122.2 -4.2,-247.3 -8.3,-371.7 z m -18668.77,-204 c -23.17,122.7 -44.63,246.5 -63.77,367.9 l 103.22,12.7 c 19.01,-120.6 40.33,-243.5 63.35,-365.5 z m 18629.77,-538.5 -104,5.8 c 8.8,123.3 16.5,247.6 23,369.6 l 104.1,-4.3 c -6.5,-122.5 -14.2,-247.3 -23.1,-371.1 z M 3092.75,7135.2 c -30.1,121.2 -58.74,243.8 -85.13,364.4 l 102.33,17.5 c 26.22,-119.8 54.68,-241.7 84.6,-362.2 z m 18403.55,-548.7 -103.7,8.7 c 13.2,123.4 25.4,247.4 36.3,368.8 l 103.9,-7.3 c -11,-121.8 -23.2,-246.3 -36.5,-370.2 z M 3293.13,6412.3 c -36.47,119 -71.85,240.3 -105.15,360.4 l 101.23,21.9 c 33.1,-119.4 68.26,-239.9 104.52,-358.2 z M 21405,5847.9 l -103.4,11.3 c 17.2,122.8 33.5,246.6 48.5,367.7 l 103.6,-10 c -15.1,-121.6 -31.4,-245.7 -48.7,-369 z M 3533.5,5698.8 c -42.61,115.4 -84.77,235 -125.31,355.5 l 99.9,26.2 c 40.27,-119.6 82.16,-238.4 124.49,-353.1 l -99.08,-28.6"
         style="fill:#dce6ff;fill-opacity:1;fill-rule:nonzero;stroke:none"
         id="path16" />
      <path
         d="m 22065.5,6487.4 c -864.8,140.5 -723.7,-1129 -1956.5,-1129 -1127.2,0 -1487.8,4834.6 -2307.9,3452.6 -4204.3,-7084.9 -1763,3013 -5106.6,3141.4 -1511.9,58 -2519.4,-1709.1 -2890.87,-4837.9 C 9265.09,4286 8016.17,9271.9 6730.89,8808.3 5914.02,8513.7 6275.23,5036.5 4928.86,5090.2 3696.87,5139.4 3788.74,6627.9 2923.86,6487.4 1992.69,6336.1 1714.56,4089.1 1714.56,4089.1 H 23274.8 c 0,0 -278.1,2247 -1209.3,2398.3"
         style="fill:#eef7ff;fill-opacity:1;fill-rule:nonzero;stroke:none"
         id="path18" />
      <path
         d="m 21299.6,5113.2 c -795.6,60 -665.8,-482.1 -1800,-482.1 -1036.9,0 -1008.4,1214.9 -1702.3,1473.2 -1277.9,475.5 -2331.5,-1931.1 -2826.9,-723.3 -941,3204.8 -3685.3,4812 -4951.4,0 C 9523.54,4173.2 8364.97,6328.3 7192.13,6104.3 6470.2,5966.3 6526.7,4631.1 5489.75,4631.1 4355.59,4631.1 4485.42,5173.2 3689.76,5113.2 2833.1,5048.6 2577.23,4089.1 2577.23,4089.1 H 22412.2 c 0,0 -255.9,959.5 -1112.6,1024.1"
         style="fill:#dce6ff;fill-opacity:1;fill-rule:nonzero;stroke:none"
         id="path20" />
      <path
         d="m 1714.56,4089.1 c 0,0 -126.72,-532.3 499.93,-657.6 857.14,-171.5 5879.91,-389.3 4657.63,-731.6 -689.97,-193.2 352.23,-455.7 3712.88,-552.3 3360.7,-96.6 9127.4,282 7188.2,842.2 -1939.3,560.2 5982.9,-65.9 5501.6,1099.3 H 1714.56"
         style="fill:#cfddf9;fill-opacity:1;fill-rule:nonzero;stroke:none"
         id="path22" />
      <path
         d="m 18247.9,12610.4 c -831.7,462.8 -133.7,1723.4 700.9,1271.6 831.6,-462.8 133.6,-1723.3 -700.9,-1271.6 z m 1846.7,-788.2 428.3,669.4 -385.2,245.3 c 46.1,138.7 72.3,281.3 79.7,423.8 l 450.9,99.4 -171.5,775.5 -434.1,-95.6 c -71.2,150.2 -165.9,290.5 -282.9,414.7 l 252.9,395.3 -671,427.3 -252.9,-395.3 c -150.7,49.8 -305.8,76.4 -460.6,80.9 l -90.1,407.4 -777.3,-171.2 90.1,-407.4 c -138.5,-69 -268,-158.3 -383.7,-266.8 l -385.2,245.4 -428.3,-669.5 385.2,-245.3 c -53.8,-161.8 -80.5,-328.8 -81.7,-495 l -434,-95.6 171.5,-775.5 451,99.3 c 66.8,-126.2 150.8,-244.5 251.1,-351 l -252.9,-395.3 671,-427.3 252.9,395.3 c 150.6,-49.8 305.8,-76.4 460.6,-80.9 l 105,-474.8 777.4,171.2 -105.1,474.8 c 138.5,69.1 268,158.3 383.6,266.8 l 385.3,-245.3"
         style="fill:#eb5648;fill-opacity:1;fill-rule:nonzero;stroke:none"
         id="path24" />
      <path
         d="m 13448.4,3655.7 h -2255.7 v 2038.4 h 2255.7 V 3655.7"
         style="fill:#255084;fill-opacity:1;fill-rule:nonzero;stroke:none"
         id="path26" />
      <path
         d="m 13448.4,4575.3 h -2255.7 v 2315.2 h 2255.7 V 4575.3"
         style="fill:#1d3f70;fill-opacity:1;fill-rule:nonzero;stroke:none"
         id="path28" />
      <path
         d="M 15776.9,3256.5 H 8864.18 c -138.76,0 -251.25,112.2 -251.25,250.6 v 0 c 0,138.5 112.49,250.7 251.25,250.7 h 6912.72 c 138.8,0 251.3,-112.2 251.3,-250.7 v 0 c 0,-138.4 -112.5,-250.6 -251.3,-250.6"
         style="fill:#1d3f70;fill-opacity:1;fill-rule:nonzero;stroke:none"
         id="path30" />
      <path
         d="m 5957.38,5417.6 v 7391.2 c 0,281.2 228.04,509.3 509.34,509.3 H 18174.4 c 281.3,0 509.3,-228.1 509.3,-509.3 V 5417.6 c 0,-281.3 -228,-509.3 -509.3,-509.3 H 6466.72 c -281.3,0 -509.34,228 -509.34,509.3"
         style="fill:#255084;fill-opacity:1;fill-rule:nonzero;stroke:none"
         id="path32" />
      <path
         d="m 12587.2,5386.7 c 0,-147 -119.4,-266.1 -266.7,-266.1 -147.3,0 -266.7,119.1 -266.7,266.1 0,146.9 119.4,266 266.7,266 147.3,0 266.7,-119.1 266.7,-266"
         style="fill:#1d3f70;fill-opacity:1;fill-rule:nonzero;stroke:none"
         id="path34" />
      <path
         d="M 18185.4,12824.1 V 10790.6 L 15154.6,6226.9 6455.72,9127.7 v 3696.4 H 18185.4"
         style="fill:#a9bff7;fill-opacity:1;fill-rule:nonzero;stroke:none"
         id="path36" />
      <path
         d="m 6455.72,9127.7 c 0,0 1750.16,1598.8 3524.65,623.7 1774.43,-975.2 2094.53,-2930.7 4473.23,-2734.8 2441.3,201.1 814.5,3450.6 3731.8,3774 V 5989.5 H 6455.72 v 3138.2"
         style="fill:#ce4abf;fill-opacity:1;fill-rule:nonzero;stroke:none"
         id="path38" />
      <path
         d="m 6455.72,12824.1 c 0,0 444.85,-1856.3 3275.02,-1416.8 2589.86,402.3 2457.86,-2334.1 4151.66,-2432.3 1693.9,-98.2 2192.1,1862.5 2816.5,2549.7 624.3,687.1 1486.5,569.7 1486.5,569.7 v 729.7 H 6455.72"
         style="fill:#d9e4f9;fill-opacity:1;fill-rule:nonzero;stroke:none"
         id="path40" />
      <path
         d="m 11817.8,8732.5 c -2,0 -4,0.5 -5.9,1.5 l -3611.94,1981.7 c -5.97,3.3 -8.15,10.8 -4.88,16.8 3.28,5.9 10.78,8.1 16.73,4.8 L 11823.8,8755.6 c 5.9,-3.3 8.1,-10.7 4.8,-16.7 -2.2,-4.1 -6.4,-6.4 -10.8,-6.4"
         style="fill:#1d3f70;fill-opacity:1;fill-rule:nonzero;stroke:none"
         id="path42" />
      <path
         d="m 10011.9,9712.1 h -134.42 v 134.1 h 134.42 v -134.1"
         style="fill:#1d3f70;fill-opacity:1;fill-rule:nonzero;stroke:none"
         id="path44" />
      <path
         d="m 8262.5,10726.5 c 0,-31.1 -25.35,-56.4 -56.62,-56.4 -31.26,0 -56.61,25.3 -56.61,56.4 0,31.2 25.35,56.5 56.61,56.5 31.27,0 56.62,-25.3 56.62,-56.5"
         style="fill:#1d3f70;fill-opacity:1;fill-rule:nonzero;stroke:none"
         id="path46" />
      <path
         d="m 11874.4,8744.8 c 0,-31.2 -25.3,-56.5 -56.6,-56.5 -31.2,0 -56.6,25.3 -56.6,56.5 0,31.2 25.4,56.5 56.6,56.5 31.3,0 56.6,-25.3 56.6,-56.5"
         style="fill:#1d3f70;fill-opacity:1;fill-rule:nonzero;stroke:none"
         id="path48" />
      <path
         d="m 14520.8,6952.6 h -134.4 v 134.1 h 134.4 v -134.1"
         style="fill:#1d3f70;fill-opacity:1;fill-rule:nonzero;stroke:none"
         id="path50" />
      <path
         d="m 12074.9,6808.3 c -6.3,0 -11.7,4.9 -12.2,11.3 -0.6,6.8 4.4,12.8 11.2,13.3 l 4833,398.3 c 7.1,0.6 12.7,-4.5 13.3,-11.3 0.6,-6.7 -4.5,-12.7 -11.3,-13.2 l -4833,-398.3 c -0.3,-0.1 -0.6,-0.1 -1,-0.1"
         style="fill:#1d3f70;fill-opacity:1;fill-rule:nonzero;stroke:none"
         id="path52" />
      <path
         d="m 12131.5,6820.7 c 0,-31.2 -25.3,-56.5 -56.6,-56.5 -31.2,0 -56.6,25.3 -56.6,56.5 0,31.1 25.4,56.4 56.6,56.4 31.3,0 56.6,-25.3 56.6,-56.4"
         style="fill:#1d3f70;fill-opacity:1;fill-rule:nonzero;stroke:none"
         id="path54" />
      <path
         d="m 16964.5,7218.9 c 0,-31.2 -25.3,-56.4 -56.6,-56.4 -31.2,0 -56.6,25.2 -56.6,56.4 0,31.2 25.4,56.5 56.6,56.5 31.3,0 56.6,-25.3 56.6,-56.5"
         style="fill:#1d3f70;fill-opacity:1;fill-rule:nonzero;stroke:none"
         id="path56" />
      <path
         d="m 14974.7,10422.2 h 2106.9 c 143.8,0 260.5,-116.6 260.5,-260.5 V 9020.4 c 0,-143.8 -116.7,-260.4 -260.5,-260.4 h -2106.9 c -143.8,0 -260.5,116.6 -260.5,260.4 v 1141.3 c 0,143.9 116.7,260.5 260.5,260.5"
         style="fill:#ffffff;fill-opacity:1;fill-rule:nonzero;stroke:none"
         id="path58" />
      <path
         d="m 16598.2,9666.9 v 379.2 h 380.1 v -379.2 h -380.1"
         style="fill:#397caa;fill-opacity:1;fill-rule:nonzero;stroke:none"
         id="path60" />
      <path
         d="m 16598.2,9136.1 v 379.2 h 380.1 v -379.2 h -380.1"
         style="fill:#ff7b7b;fill-opacity:1;fill-rule:nonzero;stroke:none"
         id="path62" />
      <path
         d="m 16218.2,9666.9 v 379.2 h 380 v -379.2 h -380"
         style="fill:#2e6999;fill-opacity:1;fill-rule:nonzero;stroke:none"
         id="path64" />
      <path
         d="m 16218.2,9136.1 v 379.2 h 380 v -379.2 h -380"
         style="fill:#ff6666;fill-opacity:1;fill-rule:nonzero;stroke:none"
         id="path66" />
      <path
         d="m 15838.1,9666.9 v 379.2 h 380.1 v -379.2 h -380.1"
         style="fill:#285989;fill-opacity:1;fill-rule:nonzero;stroke:none"
         id="path68" />
      <path
         d="m 15838.1,9136.1 v 379.2 h 380.1 v -379.2 h -380.1"
         style="fill:#f95c58;fill-opacity:1;fill-rule:nonzero;stroke:none"
         id="path70" />
      <path
         d="m 15458.1,9666.9 v 379.2 h 380 v -379.2 h -380"
         style="fill:#1f4777;fill-opacity:1;fill-rule:nonzero;stroke:none"
         id="path72" />
      <path
         d="m 15458.1,9136.1 v 379.2 h 380 v -379.2 h -380"
         style="fill:#eb5648;fill-opacity:1;fill-rule:nonzero;stroke:none"
         id="path74" />
      <path
         d="m 15078,9666.9 v 379.2 h 380.1 V 9666.9 H 15078"
         style="fill:#103663;fill-opacity:1;fill-rule:nonzero;stroke:none"
         id="path76" />
      <path
         d="m 15078,9136.1 v 379.2 h 380.1 V 9136.1 H 15078"
         style="fill:#ce3932;fill-opacity:1;fill-rule:nonzero;stroke:none"
         id="path78" />
      <path
         d="M 10717.7,11130.8 H 8029.51 c -109.58,0 -198.41,88.8 -198.41,198.4 v 969.5 c 0,109.6 88.83,198.5 198.41,198.5 h 2688.19 c 109.5,0 198.4,-88.9 198.4,-198.5 v -969.5 c 0,-109.6 -88.9,-198.4 -198.4,-198.4"
         style="fill:#667ecc;fill-opacity:1;fill-rule:nonzero;stroke:none"
         id="path80" />
      <path
         d="m 8422.39,11730 h -336.55 v 335.8 h 336.55 V 11730"
         style="fill:#1d3f70;fill-opacity:1;fill-rule:nonzero;stroke:none"
         id="path82" />
      <path
         d="m 8590.66,11562.2 h -336.54 v 335.7 h 336.54 v -335.7"
         style="fill:#1d3f70;fill-opacity:1;fill-rule:nonzero;stroke:none"
         id="path84" />
      <path
         d="m 9112.61,11730 h -336.55 v 335.8 h 336.55 V 11730"
         style="fill:#1d3f70;fill-opacity:1;fill-rule:nonzero;stroke:none"
         id="path86" />
      <path
         d="m 9280.88,11562.2 h -336.54 v 335.7 h 336.54 v -335.7"
         style="fill:#a9bff7;fill-opacity:1;fill-rule:nonzero;stroke:none"
         id="path88" />
      <path
         d="m 9802.86,12065.8 v -167.9 H 9634.57 V 11730 h -168.29 v 335.8 h 336.58"
         style="fill:#a9bff7;fill-opacity:1;fill-rule:nonzero;stroke:none"
         id="path90" />
      <path
         d="M 9802.86,11897.9 V 11730 h -168.29 v 167.9 h 168.29"
         style="fill:#1d3f70;fill-opacity:1;fill-rule:nonzero;stroke:none"
         id="path92" />
      <path
         d="m 9971.1,11897.9 v -335.7 h -336.53 v 167.8 h 168.29 v 167.9 h 168.24"
         style="fill:#a9bff7;fill-opacity:1;fill-rule:nonzero;stroke:none"
         id="path94" />
      <path
         d="m 10493.1,12065.8 v -167.9 h -168.3 V 11730 h -168.3 v 335.8 h 336.6"
         style="fill:#1d3f70;fill-opacity:1;fill-rule:nonzero;stroke:none"
         id="path96" />
      <path
         d="M 10493.1,11897.9 V 11730 h -168.3 v 167.9 h 168.3"
         style="fill:#a9bff7;fill-opacity:1;fill-rule:nonzero;stroke:none"
         id="path98" />
      <path
         d="m 10661.3,11897.9 v -335.8 h -336.5 v 167.9 h 168.3 v 167.9 h 168.2"
         style="fill:#1d3f70;fill-opacity:1;fill-rule:nonzero;stroke:none"
         id="path100" />
      <path
         d="m 9898.29,6616.7 h -934.75 c -125.94,0 -228.03,102.1 -228.03,228 v 931.6 c 0,125.9 102.09,228 228.03,228 h 934.75 c 125.91,0 228.01,-102.1 228.01,-228 v -931.6 c 0,-125.9 -102.1,-228 -228.01,-228"
         style="fill:#a9bff7;fill-opacity:1;fill-rule:nonzero;stroke:none"
         id="path102" />
      <path
         d="m 9876.08,7458.5 h -593.56 v -592.1 h 593.56 v 592.1 z M 9775.46,7357.9 V 6967 h -392.32 v 390.9 h 392.32 v 0"
         style="fill:#ffffff;fill-opacity:1;fill-rule:nonzero;stroke:none"
         id="path104" />
      <path
         d="m 9579.3,7162.5 h -593.56 v 592.1 h 593.56 v -592.1"
         style="fill:#a523a2;fill-opacity:1;fill-rule:nonzero;stroke:none"
         id="path106" />
      <path
         d="m 9282.52,6850.9 c -3.97,0 -7.93,1.5 -10.95,4.5 -6.04,6.1 -6.03,15.9 0.02,21.9 l 593.56,592.2 c 6.06,6 15.86,6 21.89,0 6.04,-6.1 6.03,-15.9 -0.02,-21.9 l -593.56,-592.2 c -3.03,-3 -6.98,-4.5 -10.94,-4.5"
         style="fill:#eb5648;fill-opacity:1;fill-rule:nonzero;stroke:none"
         id="path108" />
      <path
         d="m 5295.68,11045.4 v 2932.7 c 0,134.1 108.7,242.8 242.78,242.8 h 1409.2 c 134.08,0 242.78,-108.7 242.78,-242.8 v -2932.7 c 0,-134.1 -108.7,-242.8 -242.78,-242.8 h -1409.2 c -134.08,0 -242.78,108.7 -242.78,242.8"
         style="fill:#667ecc;fill-opacity:1;fill-rule:nonzero;stroke:none"
         id="path110" />
      <path
         d="m 6478.22,11453.8 c -30.09,30 -46.66,69.9 -46.66,112.3 0,42.5 16.57,82.4 46.66,112.4 31.06,31 71.87,46.5 112.68,46.5 40.8,0 81.61,-15.5 112.68,-46.5 30.08,-30 46.65,-69.9 46.65,-112.4 0,-42.4 -16.57,-82.3 -46.65,-112.3 -62.13,-62 -163.23,-62 -225.36,0 z m 451.15,-199.5 -187.62,187.2 c 29.15,35 45.05,78.6 45.05,124.6 0,52.3 -20.38,101.4 -57.39,138.3 -76.38,76.2 -200.65,76.2 -277.02,0 -37.01,-36.9 -57.39,-86 -57.39,-138.3 0,-52.2 20.38,-101.3 57.39,-138.2 38.19,-38.1 88.35,-57.1 138.51,-57.1 44.43,0 88.83,15 124.94,44.9 l 187.7,-187.3 25.83,25.9"
         style="fill:#ffffff;fill-opacity:1;fill-rule:nonzero;stroke:none"
         id="path112" />
      <path
         d="m 6664.87,13023.3 c -51.32,0 -102.61,-19.5 -141.67,-58.5 -37.83,-37.7 -58.66,-87.9 -58.66,-141.3 0,-53.3 20.83,-103.5 58.66,-141.3 78.11,-77.9 205.22,-77.9 283.33,0 37.83,37.8 58.67,88 58.67,141.3 0,53.4 -20.84,103.6 -58.67,141.3 v 0 c -39.05,39 -90.36,58.5 -141.66,58.5 z m 0,-436.1 c -60.66,0 -121.32,23.1 -167.5,69.2 -44.75,44.6 -69.4,104 -69.4,167.1 0,63.2 24.65,122.5 69.4,167.2 92.36,92.1 242.64,92.1 334.99,0 v 0 c 44.76,-44.7 69.41,-104 69.41,-167.2 0,-63.1 -24.65,-122.5 -69.41,-167.1 -46.17,-46.1 -106.83,-69.2 -167.49,-69.2"
         style="fill:#ffffff;fill-opacity:1;fill-rule:nonzero;stroke:none"
         id="path114" />
      <path
         d="m 6503.09,11970.7 -25.83,25.9 349.39,348.6 25.83,-25.9 -349.39,-348.6"
         style="fill:#ffffff;fill-opacity:1;fill-rule:nonzero;stroke:none"
         id="path116" />
      <path
         d="m 5588.22,13782.1 40.87,-586 132.51,287.8 316.26,-28.1 -489.64,326.3 z m 41.66,-71.7 308.29,-205.4 -173.33,15.4 c -1.09,0.1 -2.17,0.1 -3.25,0.1 -14.17,0 -27.2,-8.2 -33.21,-21.3 l -72.75,-158 -25.75,369.2 v 0"
         style="fill:#ffffff;fill-opacity:1;fill-rule:nonzero;stroke:none"
         id="path118" />
      <path
         d="m 6420.05,13782.1 40.86,-586 132.52,287.8 316.26,-28.1 -489.64,326.3"
         style="fill:#ffffff;fill-opacity:1;fill-rule:nonzero;stroke:none"
         id="path120" />
      <path
         d="m 5629.83,12353.4 v -92.9 h 36.58 v 56.4 h 148.34 V 11999 h -55.58 v -36.6 h 147.74 v 36.6 h -55.59 v 317.9 h 148.35 v -56.4 h 36.58 v 92.9 h -406.42"
         style="fill:#ffffff;fill-opacity:1;fill-rule:nonzero;stroke:none"
         id="path122" />
      <path
         d="m 5582.58,12540.1 -25.83,25.9 349.4,348.6 25.83,-25.9 -349.4,-348.6"
         style="fill:#ffffff;fill-opacity:1;fill-rule:nonzero;stroke:none"
         id="path124" />
      <path
         d="m 5871.55,12975.9 c -49.06,0 -88.81,-39.7 -88.81,-88.6 0,48.9 -39.74,88.6 -88.8,88.6 49.06,0 88.8,39.6 88.8,88.6 0,-49 39.75,-88.6 88.81,-88.6"
         style="fill:#ffffff;fill-opacity:1;fill-rule:nonzero;stroke:none"
         id="path126" />
      <path
         d="m 6046.05,13027.2 c -37.01,0 -66.99,-29.9 -66.99,-66.9 0,37 -29.98,66.9 -66.99,66.9 37.01,0 66.99,29.9 66.99,66.8 0,-36.9 29.98,-66.8 66.99,-66.8"
         style="fill:#ffffff;fill-opacity:1;fill-rule:nonzero;stroke:none"
         id="path128" />
      <path
         d="m 6096.41,12861.6 c -37,0 -66.99,-29.9 -66.99,-66.8 0,36.9 -29.98,66.8 -66.99,66.8 37.01,0 66.99,29.9 66.99,66.8 0,-36.9 29.99,-66.8 66.99,-66.8"
         style="fill:#ffffff;fill-opacity:1;fill-rule:nonzero;stroke:none"
         id="path130" />
      <path
         d="m 5673.22,11277.6 c -15.38,-15.3 -40.4,-15.3 -55.76,0.1 -7.43,7.4 -11.52,17.2 -11.51,27.7 0.01,10.5 4.11,20.4 11.55,27.8 l 288.31,287.2 55.66,-55.6 z m 393.24,447.3 c -15.96,15.9 -41.86,16 -57.84,0 l -46,-45.8 -17.03,17 c -15.96,16 -41.86,16 -57.84,0.1 v 0 c -13.27,-13.3 -15.37,-33.2 -6.62,-48.8 l -289.45,-288.3 c -14.37,-14.3 -22.29,-33.4 -22.3,-53.7 -0.01,-20.2 7.88,-39.3 22.23,-53.6 14.81,-14.8 34.28,-22.2 53.75,-22.2 19.43,0 38.87,7.3 53.67,22.1 l 289.51,288.4 c 15.57,-8.7 35.6,-6.7 48.87,6.5 15.98,16 16,41.8 0.04,57.8 l -17.03,17 46,45.8 c 15.98,15.9 16,41.7 0.04,57.7"
         style="fill:#ffffff;fill-opacity:1;fill-rule:nonzero;stroke:none"
         id="path132" />
      <path
         d="M 12353.6,13952 H 8132.94 c -123.56,0 -223.72,100.2 -223.72,223.7 v 700.6 c 0,123.5 100.16,223.7 223.72,223.7 h 4220.66 c 123.5,0 223.7,-100.2 223.7,-223.7 v -700.6 c 0,-123.5 -100.2,-223.7 -223.7,-223.7"
         style="fill:#667ecc;fill-opacity:1;fill-rule:nonzero;stroke:none"
         id="path134" />
      <path
         d="m 8238.83,14257.1 h -41.3 v 496.4 h 41.3 v -496.4"
         style="fill:#ffffff;fill-opacity:1;fill-rule:nonzero;stroke:none"
         id="path136" />
      <path
         d="M 8513.97,14555.4 H 8270 v 140.7 h 243.97 v -140.7"
         style="fill:#ffffff;fill-opacity:1;fill-rule:nonzero;stroke:none"
         id="path138" />
      <path
         d="M 8603.97,14372.9 H 8270 v 140.8 h 333.97 v -140.8"
         style="fill:#ffffff;fill-opacity:1;fill-rule:nonzero;stroke:none"
         id="path140" />
      <path
         d="m 10068,14257.1 h -41.3 v 496.4 h 41.3 v -496.4"
         style="fill:#ffffff;fill-opacity:1;fill-rule:nonzero;stroke:none"
         id="path142" />
      <path
         d="m 9751.57,14555.4 h 243.97 v 140.7 h -243.97 v -140.7"
         style="fill:#ffffff;fill-opacity:1;fill-rule:nonzero;stroke:none"
         id="path144" />
      <path
         d="m 9661.56,14372.9 h 333.98 v 140.8 h -333.98 v -140.8"
         style="fill:#ffffff;fill-opacity:1;fill-rule:nonzero;stroke:none"
         id="path146" />
      <path
         d="m 9153.42,14257.1 h -41.3 v 496.4 h 41.3 v -496.4"
         style="fill:#ffffff;fill-opacity:1;fill-rule:nonzero;stroke:none"
         id="path148" />
      <path
         d="M 9281.04,14555.4 H 8984.5 v 140.7 h 296.54 v -140.7"
         style="fill:#ffffff;fill-opacity:1;fill-rule:nonzero;stroke:none"
         id="path150" />
      <path
         d="m 9335.75,14372.9 h -405.96 v 140.8 h 405.96 v -140.8"
         style="fill:#ffffff;fill-opacity:1;fill-rule:nonzero;stroke:none"
         id="path152" />
      <path
         d="M 11546.7,14484.7 H 11049 v 41.3 h 497.7 v -41.3"
         style="fill:#ffffff;fill-opacity:1;fill-rule:nonzero;stroke:none"
         id="path154" />
      <path
         d="m 11348,14357.4 v 295.9 h 141.1 v -295.9 H 11348"
         style="fill:#ffffff;fill-opacity:1;fill-rule:nonzero;stroke:none"
         id="path156" />
      <path
         d="m 11165.2,14302.8 v 405 h 141 v -405 h -141"
         style="fill:#ffffff;fill-opacity:1;fill-rule:nonzero;stroke:none"
         id="path158" />
      <path
         d="m 10825,14712.6 h -497.6 v 41.3 h 497.6 v -41.3"
         style="fill:#ffffff;fill-opacity:1;fill-rule:nonzero;stroke:none"
         id="path160" />
      <path
         d="m 10597,14386.6 v 295.8 h 141.1 v -295.8 H 10597"
         style="fill:#ffffff;fill-opacity:1;fill-rule:nonzero;stroke:none"
         id="path162" />
      <path
         d="m 10414.2,14277.4 v 405 h 141.1 v -405 h -141.1"
         style="fill:#ffffff;fill-opacity:1;fill-rule:nonzero;stroke:none"
         id="path164" />
      <path
         d="m 12268.3,14256.8 h -497.6 v 41.3 h 497.6 v -41.3"
         style="fill:#ffffff;fill-opacity:1;fill-rule:nonzero;stroke:none"
         id="path166" />
      <path
         d="m 12040.4,14624.1 v -295.9 h 141.1 v 295.9 h -141.1"
         style="fill:#ffffff;fill-opacity:1;fill-rule:nonzero;stroke:none"
         id="path168" />
      <path
         d="m 11857.6,14733.2 v -405 h 141.1 v 405 h -141.1"
         style="fill:#ffffff;fill-opacity:1;fill-rule:nonzero;stroke:none"
         id="path170" />
      <path
         d="m 6423.58,15308.5 c -513.59,108.7 -364.62,873.4 152.31,782.2 513.57,-108.6 364.61,-873.3 -152.31,-782.2 z m 1033.6,61.7 54.01,277.4 -212.97,41.2 c 0.66,44.9 -2.35,89.3 -9.08,132.7 l 204.89,70.4 -92.26,267.2 -205.16,-70.5 c -21.73,38.7 -46.64,75.5 -74.49,110.1 l 142.34,163.5 -213.81,185.3 -142.15,-163.2 c -37.83,22.5 -77.92,41.9 -119.89,58.1 l 41.37,212.5 -278.07,53.9 -41.36,-212.5 c -44.99,0.6 -89.45,-2.4 -132.96,-9.1 l -70.58,204.4 -267.83,-92 70.68,-204.7 c -38.8,-21.7 -75.72,-46.5 -110.4,-74.3 l -163.79,142 -185.81,-213.3 163.58,-141.8 c -22.54,-37.8 -41.97,-77.8 -58.2,-119.6 l -212.97,41.2 -54.01,-277.4 212.97,-41.3 c -0.66,-44.8 2.35,-89.2 9.08,-132.6 l -204.89,-70.4 92.26,-267.2 205.16,70.5 c 21.74,-38.7 46.65,-75.6 74.49,-110.2 l -142.34,-163.4 213.81,-185.4 142.15,163.2 c 37.83,-22.4 77.93,-41.8 119.89,-58 l -41.37,-212.5 278.07,-53.9 41.37,212.5 c 44.98,-0.7 89.43,2.3 132.96,9.1 l 70.57,-204.5 267.82,92.1 -70.68,204.7 c 38.81,21.7 75.73,46.5 110.41,74.3 l 163.79,-142 185.8,213.3 -163.57,141.8 c 22.53,37.8 41.97,77.8 58.2,119.6 l 212.97,-41.2"
         style="fill:#ce4abf;fill-opacity:1;fill-rule:nonzero;stroke:none"
         id="path172" />
      <path
         d="m 19973.9,9478.8 c -353.2,74.7 -250.8,600.6 104.8,538 353.2,-74.7 250.7,-600.7 -104.8,-538 z m 710.9,42.4 37.1,190.8 -146.4,28.4 c 0.4,30.8 -1.7,61.3 -6.3,91.2 l 140.9,48.4 -63.4,183.8 -141.1,-48.5 c -15,26.6 -32.1,52 -51.3,75.8 l 97.9,112.3 -147,127.5 -97.8,-112.2 c -26,15.5 -53.6,28.8 -82.4,39.9 l 28.4,146.2 -191.2,37 -28.5,-146.1 c -30.9,0.4 -61.5,-1.6 -91.4,-6.3 l -48.6,140.7 -184.2,-63.4 48.6,-140.7 c -26.7,-14.9 -52,-32 -75.9,-51.1 l -112.6,97.6 -127.8,-146.7 112.5,-97.5 c -15.5,-26 -28.9,-53.5 -40.1,-82.3 l -146.4,28.4 -37.2,-190.8 146.5,-28.4 c -0.5,-30.9 1.6,-61.4 6.2,-91.2 l -140.9,-48.5 63.5,-183.7 141.1,48.5 c 14.9,-26.7 32.1,-52 51.2,-75.8 l -97.9,-112.4 147.1,-127.5 97.7,112.3 c 26,-15.5 53.6,-28.8 82.5,-40 l -28.5,-146.1 191.3,-37.1 28.4,146.2 c 31,-0.5 61.5,1.6 91.5,6.2 l 48.5,-140.6 184.2,63.3 -48.6,140.8 c 26.7,14.9 52.1,32 75.9,51.1 l 112.7,-97.7 127.8,146.7 -112.5,97.6 c 15.5,25.9 28.8,53.5 40,82.3 l 146.5,-28.4"
         style="fill:#7689d6;fill-opacity:1;fill-rule:nonzero;stroke:none"
         id="path174" />
      <path
         d="m 14848.9,16780.5 c 0,0 103,194.9 412,134.7 309,-60.2 379,-452.5 482.6,-631.6 219.5,-379.4 283,-781.3 165.9,-973.2 -130,-213.1 -412.8,-127.2 -826.5,-85.6 -441.4,44.4 -623.4,428.4 -344.5,952.2 l 110.5,603.5"
         style="fill:#662948;fill-opacity:1;fill-rule:nonzero;stroke:none"
         id="path176" />
      <path
         d="m 14970.2,15870.1 c -122.4,-176.1 -206.5,-1038.6 -209.5,-1105.6 -142.3,11.6 -484.1,39.5 -629.8,51.4 -38.7,316.2 386.2,960.9 769.8,1034.7 0,0.1 0,0.1 0,0.1 43.3,14.3 69.5,19.4 69.5,19.4"
         style="fill:#3a72aa;fill-opacity:1;fill-rule:nonzero;stroke:none"
         id="path178" />
      <path
         d="m 13138.5,11125.9 615.3,1.9 c -0.8,98.1 -25.4,296.4 -5,408.2 l -265.9,-32.1 c 7,-53.8 22.4,-170.6 -67.3,-197.8 -116.2,-35.3 -242.3,-23.2 -315.3,-111.6 -19.1,-29.7 2.9,-68.8 38.2,-68.6"
         style="fill:#f99370;fill-opacity:1;fill-rule:nonzero;stroke:none"
         id="path180" />
      <path
         d="m 13771.7,11187 c -2.5,-20.8 -8.2,-41 -18.5,-59.2 l -621.4,-2 c -30.2,-0.1 -52.1,29.5 -42.2,58 23.4,66.5 100.7,163 387,178.8 0,0 104.8,-17.4 264.8,12 0,0 40.3,-103.4 30.3,-187.6"
         style="fill:#1d3f70;fill-opacity:1;fill-rule:nonzero;stroke:none"
         id="path182" />
      <path
         d="m 13273.1,11206.3 c -4.9,0 -9.5,2.9 -11.5,7.8 -23,55.9 -64.1,73 -65.8,73.7 -32.6,50.2 61.1,14.7 89.1,-64.2 3.5,-8.1 -3,-17.6 -11.8,-17.3"
         style="fill:#e8c0a6;fill-opacity:1;fill-rule:nonzero;stroke:none"
         id="path184" />
      <path
         d="m 13370.9,11218.4 c -5.3,0 -10.2,3.4 -11.9,8.8 -20.3,64.8 -77.1,94.6 -77.7,94.9 -29.6,58.5 79.3,-3.9 101.7,-87.4 2.7,-8 -3.8,-16.5 -12.1,-16.3"
         style="fill:#e8c0a6;fill-opacity:1;fill-rule:nonzero;stroke:none"
         id="path186" />
      <path
         d="m 13482.2,11232.4 c -5.2,0 -10,3.2 -11.8,8.4 -23.7,67.3 -78.1,103.8 -78.7,104.2 -22.8,61.3 76.2,-12.8 102.4,-95.9 3,-8 -3.4,-17 -11.9,-16.7"
         style="fill:#e8c0a6;fill-opacity:1;fill-rule:nonzero;stroke:none"
         id="path188" />
      <path
         d="m 13090.7,11184.8 681.7,2.2 c -2.5,-20.8 -8.2,-41 -18.6,-59.2 l -621.3,-2 c -30.6,-0.1 -52.6,30.4 -41.8,59"
         style="fill:#395b96;fill-opacity:1;fill-rule:nonzero;stroke:none"
         id="path190" />
      <path
         d="m 15106,13454.2 c -302.7,15.1 -828.9,185.6 -1059.5,-197 -252.4,-417.9 -198.4,-1308.9 -176.5,-1739.5 -333.3,-104.2 -511.2,4 -511.2,4 -134.8,882.1 -585.5,2892.5 972,2601.9 0,0.1 1046,-8.1 1046,-8.1 172.2,-357.1 13.4,-657.5 -270.8,-661.3"
         style="fill:#eb5648;fill-opacity:1;fill-rule:nonzero;stroke:none"
         id="path192" />
      <path
         d="m 13876.3,11120.2 615.4,1.9 c -0.9,98.1 -25.5,296.4 -5.1,408.2 l -265.9,-32.1 c 7,-53.9 24.5,-170.7 -67.3,-197.8 -116.4,-34.5 -242.3,-23.2 -315.3,-111.6 -19,-29.7 2.9,-68.8 38.2,-68.6"
         style="fill:#f99370;fill-opacity:1;fill-rule:nonzero;stroke:none"
         id="path194" />
      <path
         d="m 14510.2,11181.3 c -2.5,-20.8 -8.2,-41 -18.5,-59.2 l -621.3,-2 c -30.3,-0.1 -52.2,29.5 -42.3,58 23.4,66.5 101.6,164.6 388,180.5 0,0 103.1,-20.5 263.2,8.9 0,0 40.9,-102.1 30.9,-186.2"
         style="fill:#1d3f70;fill-opacity:1;fill-rule:nonzero;stroke:none"
         id="path196" />
      <path
         d="m 14010.9,11200.6 c -4.9,0 -9.5,2.9 -11.5,7.8 -23,55.9 -64.1,73 -65.8,73.6 -32.6,50.3 61.1,14.8 89.1,-64.1 3.5,-8.1 -3,-17.6 -11.8,-17.3"
         style="fill:#e8c0a6;fill-opacity:1;fill-rule:nonzero;stroke:none"
         id="path198" />
      <path
         d="m 14108.7,11212.6 c -5.3,0.1 -10.2,3.5 -11.9,8.8 -20.3,64.9 -77.1,94.7 -77.7,95 -29.6,58.5 79.4,-3.9 101.7,-87.4 2.7,-8 -3.7,-16.5 -12.1,-16.4"
         style="fill:#e8c0a6;fill-opacity:1;fill-rule:nonzero;stroke:none"
         id="path200" />
      <path
         d="m 14220,11226.6 c -5.2,0.1 -10,3.3 -11.8,8.4 -23.7,67.4 -78.1,103.9 -78.7,104.3 -22.8,61.3 76.2,-12.8 102.4,-95.9 3.1,-8 -3.4,-17 -11.9,-16.8"
         style="fill:#e8c0a6;fill-opacity:1;fill-rule:nonzero;stroke:none"
         id="path202" />
      <path
         d="m 13828.5,11179.1 681.7,2.2 c -2.5,-20.8 -8.2,-41 -18.5,-59.2 l -621.3,-2 c -30.7,-0.1 -52.7,30.4 -41.9,59"
         style="fill:#395b96;fill-opacity:1;fill-rule:nonzero;stroke:none"
         id="path204" />
      <path
         d="m 14416,14123 -94.6,-649.9 c -392.3,-150.7 -423.6,-561 -462.9,-1022.9 -175.6,715.5 -154.2,1437.1 557.5,1672.8"
         style="fill:#ce3932;fill-opacity:1;fill-rule:nonzero;stroke:none"
         id="path206" />
      <path
         d="m 15594.3,13388.9 c -334,-163.9 -727.7,54.8 -954.1,-392.4 -182.9,-391.7 -87.9,-1143.6 -41.2,-1484.5 -333.3,-104.2 -511.2,4 -511.2,4 -191.1,761.5 -628.2,2531.2 646.4,2604.5 349,8.4 807.3,1.7 1115.8,17.9 0,0 157.3,-546.9 -255.7,-749.5"
         style="fill:#eb5648;fill-opacity:1;fill-rule:nonzero;stroke:none"
         id="path208" />
      <path
         d="m 14429.9,15032.1 c -6.1,0 -11,5.3 -10.3,11.4 22.1,172.3 207,394.4 231,382.3 16.2,-21.2 -196.4,-204.8 -210.2,-384.3 -0.5,-5.4 -5.1,-9.5 -10.5,-9.4"
         style="fill:#23659b;fill-opacity:1;fill-rule:nonzero;stroke:none"
         id="path210" />
      <path
         d="m 15857.5,14318.1 c 25.6,-192.7 11.4,-274 11.4,-274 -514.2,-59.7 -838.2,-60.1 -1463.1,31.9 404.4,1177.6 -490.9,425.4 564.4,1794.1 2.5,-0.2 256,-25.1 258.3,-25.3 292,-222.6 478.9,-516.3 629,-1526.7"
         style="fill:#3a72aa;fill-opacity:1;fill-rule:nonzero;stroke:none"
         id="path212" />
      <path
         d="m 13327.5,14063.9 1384.4,-10.7 -267.8,1014.5 -1376,10.7 259.4,-1014.5"
         style="fill:#163260;fill-opacity:1;fill-rule:nonzero;stroke:none"
         id="path214" />
      <path
         d="m 14711.9,14058.2 -0.5,-68.8 -1384.4,10.8 0.5,68.7 1384.4,-10.7"
         style="fill:#234270;fill-opacity:1;fill-rule:nonzero;stroke:none"
         id="path216" />
      <path
         d="m 14423.3,15067.9 49.6,-0.4 262.1,-1009.5 656.9,-5.1 -0.5,-68.8 -703.1,5.5 0.5,61.5 -265.5,1016.8"
         style="fill:#0b274f;fill-opacity:1;fill-rule:nonzero;stroke:none"
         id="path218" />
      <path
         d="m 15682.2,15645.2 c 317.3,-241.1 484.4,-671.9 397,-1061.8 -34,-219.1 -174.4,-426.7 -391.9,-487.1 -107.4,-41.9 -607.8,-106.8 -583.1,70.1 8.2,42.4 46.1,57.7 82.7,68.8 60.5,20.7 122.8,43.7 180.4,69.3 103.3,52.4 236,101.3 259.3,216.4 49.8,268.8 -58.7,532.7 -258.9,710 0.4,-0.2 -0.9,0.8 2.1,-1.4 -271.6,205.2 39.2,618.3 312.4,415.7"
         style="fill:#f99370;fill-opacity:1;fill-rule:nonzero;stroke:none"
         id="path220" />
      <path
         d="m 15861.8,14143.1 c -163.1,-71.2 -317.2,-92.2 -435.5,-95.5 0,0 28.7,175.9 -98.3,249.4 722.9,539.3 -301.7,776.6 -98.3,1575.7 770.4,-19.7 1556.9,-1191.1 632.1,-1729.6"
         style="fill:#3a72aa;fill-opacity:1;fill-rule:nonzero;stroke:none"
         id="path222" />
      <path
         d="m 14798.4,14057.5 c 0,0 63.3,214.6 431.2,186.9 l 75.6,-190.8 -506.8,3.9"
         style="fill:#f99370;fill-opacity:1;fill-rule:nonzero;stroke:none"
         id="path224" />
      <path
         d="m 15511.7,14052.9 c -52.6,-5.5 -85.4,-5.3 -85.4,-5.3 0,0 28.7,175.9 -98.3,249.4 0,0 31.6,20.2 72.9,55.9 0,0 139,-103.5 110.8,-300"
         style="fill:#23659b;fill-opacity:1;fill-rule:nonzero;stroke:none"
         id="path226" />
      <path
         d="m 15394.1,14322.9 c -9.3,-0.1 -14.2,12.4 -6.7,18.4 321.3,281.2 167.3,582.7 -21,778.7 -9.2,9.6 6.5,24.4 15.5,14.1 200.3,-202.9 350.8,-536.7 12.2,-811.2"
         style="fill:#23659b;fill-opacity:1;fill-rule:nonzero;stroke:none"
         id="path228" />
      <path
         d="m 15504.9,14051.8 c -59.4,35.2 167.7,16.1 341.2,96.3 5.3,2.1 11.4,-0.5 13.6,-5.8 2.1,-5.4 -0.5,-11.5 -5.8,-13.6 -179.2,-71.7 -346.7,-76.8 -349,-76.9"
         style="fill:#23659b;fill-opacity:1;fill-rule:nonzero;stroke:none"
         id="path230" />
      <path
         d="m 15298.4,15550 c -7.8,-55 -60.7,-71.7 -73.9,-68.7 -184.7,80.4 -54.8,-170.1 -131.2,-195 -64.3,-20.8 -71.3,62.7 -127.2,67.7 -81.1,7.2 -97.9,-36.7 -126.2,-9.7 -39.4,37.6 57.2,102 45.4,168.9 -8.3,47 -102.1,0.6 -100.1,97.1 2.2,94.8 112,235.9 115.5,240.3 0,0.1 0,0.1 0,0.1 103.5,53.7 329,22 329,22 0,0 29.9,6.3 58.5,-4.7 13.5,-77.2 25.5,-235.5 10.2,-318"
         style="fill:#f4d4be;fill-opacity:1;fill-rule:nonzero;stroke:none"
         id="path232" />
      <path
         d="m 14977.1,15961.8 -7,-91.7 c 0,0 -9.2,-88.2 -10.5,-252.2 -1.8,-230.5 55.5,-204.1 135.9,-43.7 44.2,88.2 134.2,298.5 134.2,298.5 l 13.4,161.2 -266,-72.1"
         style="fill:#f99370;fill-opacity:1;fill-rule:nonzero;stroke:none"
         id="path234" />
      <path
         d="m 15287.1,16221.9 c -1,-4.3 -2.3,-8.7 -3.8,-13 -5.5,4.6 -34.9,-143.8 -47.3,-260 -111,-63.8 -242.2,-58.2 -264.1,-51.3 7.2,172.1 23.8,429.6 157,476.6 89.3,27.5 183.1,-60.9 158.2,-152.3"
         style="fill:#e57d61;fill-opacity:1;fill-rule:nonzero;stroke:none"
         id="path236" />
      <path
         d="m 14956.6,16791.7 c -333.6,42.5 -390.7,-482.9 -165.3,-678.1 l 165.3,678.1"
         style="fill:#662948;fill-opacity:1;fill-rule:nonzero;stroke:none"
         id="path238" />
      <path
         d="m 15347.3,16418.1 c 15.2,-115 15.2,-249.7 -49.9,-348.1 l -0.1,-0.1 c -177.9,-285.3 -757.7,-95.9 -595.8,242.7 23.7,43.2 37.3,95.8 39.4,140.6 8.9,469.3 563,366.5 606.4,-35.1"
         style="fill:#f99370;fill-opacity:1;fill-rule:nonzero;stroke:none"
         id="path240" />
      <path
         d="m 14907.5,16360.4 c -15.8,16 9.9,40.4 25.2,23.9 15.7,-16.1 -9.9,-40.5 -25.2,-23.9"
         style="fill:#c16256;fill-opacity:1;fill-rule:nonzero;stroke:none"
         id="path242" />
      <path
         d="m 14760.6,16342 c -15.8,16.1 9.8,40.4 25.2,23.9 15.7,-16 -9.9,-40.4 -25.2,-23.9"
         style="fill:#c16256;fill-opacity:1;fill-rule:nonzero;stroke:none"
         id="path244" />
      <path
         d="m 14847,16211.2 c -29.4,-4.5 -71.9,3.5 -43.8,38.4 26.3,26.3 29.9,98.3 29.9,99 0.3,8.4 13.7,7.9 13.2,-0.6 -0.2,-3.2 -3.9,-77.7 -33.8,-107.7 -3.4,-3.4 -6.9,-8 -4.5,-11 6.9,-8.3 40,-9.9 59.1,3.1 2.9,2.1 7.1,1.3 9.1,-1.7 4.8,-13.7 -18.9,-16.5 -29.2,-19.5"
         style="fill:#c16256;fill-opacity:1;fill-rule:nonzero;stroke:none"
         id="path246" />
      <path
         d="m 15347.3,16418.1 c 15.2,-115 15.2,-249.7 -49.9,-348.1 l -0.1,-0.1 c 30.2,74 20.2,216.3 20.2,216.3 l -40.5,52.5 c -418.6,8.9 -477.6,324.4 -477.6,324.4 180.1,250.4 528.1,19.8 547.9,-245"
         style="fill:#e57d61;fill-opacity:1;fill-rule:nonzero;stroke:none"
         id="path248" />
      <path
         d="m 14831.8,16702.4 c 0,0 59.8,-310.7 438.5,-332.4 l 102.3,104.1 c 49.3,269.7 -270.3,548.7 -540.8,228.3"
         style="fill:#662948;fill-opacity:1;fill-rule:nonzero;stroke:none"
         id="path250" />
      <path
         d="m 15433.7,16383.5 c 12.4,-131.4 -154,-145.2 -163.4,-13.5 -12.5,131.4 154,145.2 163.4,13.5"
         style="fill:#f99370;fill-opacity:1;fill-rule:nonzero;stroke:none"
         id="path252" />
      <path
         d="m 15394.8,16417.8 v 0 c -16.5,52.2 -117.4,-2.6 -74.7,-4.9 0.2,2.3 44.9,28.6 58.6,5.4 -44,-20.3 -59.2,-101.8 -33.7,-75.6 0.1,0.5 5.7,46.9 40.4,64.2 16.2,-118.8 32.4,-36.6 9.4,10.9"
         style="fill:#c16256;fill-opacity:1;fill-rule:nonzero;stroke:none"
         id="path254" />
      <path
         d="m 15382.1,16305.5 c 5.8,-18.2 -23,-26.8 -28.2,-8.5 -5.8,18.2 23,26.9 28.2,8.5"
         style="fill:#f4d4be;fill-opacity:1;fill-rule:nonzero;stroke:none"
         id="path256" />
      <path
         d="m 14956.5,15227.1 c 0.3,-38.1 -59.6,-37.6 -58.8,0.4 -0.2,38.1 59.7,37.6 58.8,-0.4"
         style="fill:#23659b;fill-opacity:1;fill-rule:nonzero;stroke:none"
         id="path258" />
      <path
         d="m 14897.2,15021 c 0.3,-38 -59.7,-37.5 -58.8,0.5 -0.2,38.1 59.6,37.6 58.8,-0.5"
         style="fill:#23659b;fill-opacity:1;fill-rule:nonzero;stroke:none"
         id="path260" />
      <path
         d="m 14895.7,14835.2 c 0.3,-38 -59.6,-37.5 -58.7,0.5 -0.3,38 59.6,37.6 58.7,-0.5"
         style="fill:#23659b;fill-opacity:1;fill-rule:nonzero;stroke:none"
         id="path262" />
      <path
         d="m 13862.5,11665.6 c 4.7,-92.2 7.5,-147.9 7.5,-147.9 -333.3,-104.2 -511.2,4 -511.2,4 0,0 -6.2,45.9 -19.9,125.7 3.9,-2 211.2,-105.7 523.6,18.2"
         style="fill:#ce3932;fill-opacity:1;fill-rule:nonzero;stroke:none"
         id="path264" />
      <path
         d="m 14599,11512 c -333.3,-104.2 -511.2,4 -511.2,4 0,0 -10.8,42.8 -29.1,116.7 0,0 182.6,-96.6 523.8,-4.1 9.5,-73 16.5,-116.6 16.5,-116.6"
         style="fill:#ce3932;fill-opacity:1;fill-rule:nonzero;stroke:none"
         id="path266" />
      <path
         d="m 14818.5,14059.5 c -65.5,-1.5 173.9,159.6 244.6,119.2 0.6,-5.7 -3.6,-10.8 -9.4,-11.4 -134.1,-12.9 -223.9,-107.5 -235.2,-107.8"
         style="fill:#e57d61;fill-opacity:1;fill-rule:nonzero;stroke:none"
         id="path268" />
      <path
         d="m 14919.3,14055 c -49.5,21.6 105,56.6 181.5,76.6 5.6,1.2 11.2,-2.5 12.3,-8.2 1.1,-5.7 -2.6,-11.1 -8.2,-12.3 -81.5,-16 -177.4,-55.2 -185.6,-56.1"
         style="fill:#e57d61;fill-opacity:1;fill-rule:nonzero;stroke:none"
         id="path270" />
      <path
         d="m 14962.5,16413.1 c -1.7,0.1 -3.3,0.6 -4.6,1.7 -41.5,32.9 -79.6,22.6 -81.2,22.1 -4,-1.1 -8.1,1.2 -9.2,5.1 -1.2,3.9 1.1,8 5,9.2 1.9,0.6 46.8,13.1 94.6,-24.8 3.3,-2.6 3.8,-7.2 1.2,-10.5 -1.4,-1.8 -3.6,-2.8 -5.8,-2.8"
         style="fill:#c16256;fill-opacity:1;fill-rule:nonzero;stroke:none"
         id="path272" />
      <path
         d="m 14858.2,16159 c 1,1.2 2.5,2.1 4.1,2.5 52,10.7 68.5,46.4 69.2,47.9 1.6,3.8 6,5.5 9.8,3.8 3.7,-1.6 5.4,-5.9 3.8,-9.7 -0.8,-1.8 -19.9,-44.3 -79.7,-56.6 -4.1,-0.8 -8,1.8 -8.8,5.8 -0.5,2.3 0.1,4.6 1.6,6.3"
         style="fill:#c16256;fill-opacity:1;fill-rule:nonzero;stroke:none"
         id="path274" />
      <path
         d="m 14743.7,16396.9 c -1.5,0 -2.9,0.5 -4.2,1.3 -3.4,2.4 -4.2,7 -1.9,10.4 1,1.4 24.5,35 63.1,33.2 4.1,-0.2 7.3,-3.7 7.1,-7.8 -0.2,-4.1 -3.6,-7.3 -7.8,-7.1 -30.4,1.3 -49.9,-26.5 -50.1,-26.8 -1.5,-2.1 -3.8,-3.2 -6.2,-3.2"
         style="fill:#c16256;fill-opacity:1;fill-rule:nonzero;stroke:none"
         id="path276" />
      <path
         d="m 8055.07,8224.5 c 0,0 83.49,-12.3 141.54,31.6 l -78.72,31.2 -62.82,-62.8"
         style="fill:#f99370;fill-opacity:1;fill-rule:nonzero;stroke:none"
         id="path278" />
      <path
         d="m 5054.64,3302.9 -10.94,5.7 c 0,-7.6 -9.48,-34.1 -17.14,-34.1 L 4703,3267.8 c -7.66,0 -12.37,14.4 -12.37,22 l -27.6,7.9 c 0,48.4 3.99,65.9 25.39,103.3 78.66,104.3 -15.25,570.8 -12.53,692.7 -19.4,33.3 340.74,7.2 345.77,15 8.09,0 14.46,-6.8 13.82,-14.9 l -42.38,-533.1 c -19.02,-101.2 58.83,-162.4 61.54,-257.8"
         style="fill:#f99370;fill-opacity:1;fill-rule:nonzero;stroke:none"
         id="path280" />
      <path
         d="m 6655.04,3256.5 h -644.5 c -56.27,2.2 -55.84,59.5 -45.47,103.9 35.49,160 -27.24,527.4 -38.86,692 -3.1,30.1 20.6,56.3 50.97,56.3 475.57,4.9 313.65,70.4 285.65,-442 -14.24,-260.7 183.54,-239.8 305.41,-259.6 80.23,-5.8 214.41,-115 86.8,-150.6"
         style="fill:#f99370;fill-opacity:1;fill-rule:nonzero;stroke:none"
         id="path282" />
      <path
         d="m 5940.53,3323.2 c 1.74,-31.5 17.41,-67.5 54.01,-66.7 h 668.54 c 157.68,58.3 -68.85,267 -377.52,265.8 -141.41,-38.8 -309.92,-11.9 -309.92,-11.9 0,0 -45.51,-57.9 -35.11,-187.2"
         style="fill:#103663;fill-opacity:1;fill-rule:nonzero;stroke:none"
         id="path284" />
      <path
         d="m 4714.3,3256.5 h 285.73 c 139.25,18.9 39.76,265.5 -142.87,273 -183.59,7.5 -282.01,-254.3 -142.86,-273"
         style="fill:#103663;fill-opacity:1;fill-rule:nonzero;stroke:none"
         id="path286" />
      <path
         d="m 6503.71,3346.7 c 5.61,0 10.93,3.4 13.17,8.9 25.69,63.2 72.02,82.6 73.97,83.4 36.13,56.9 -68.86,16.4 -100.3,-72.8 -3.91,-9 3.34,-19.6 13.16,-19.5"
         style="fill:#e8c0a6;fill-opacity:1;fill-rule:nonzero;stroke:none"
         id="path288" />
      <path
         d="m 6393.32,3360 c 6.07,0 11.68,3.9 13.57,10 22.71,73.3 86.65,107.1 87.29,107.5 32.76,66.1 -89.3,-4.7 -114.43,-99.1 -2.93,-8.9 4.21,-18.5 13.57,-18.4"
         style="fill:#e8c0a6;fill-opacity:1;fill-rule:nonzero;stroke:none"
         id="path290" />
      <path
         d="m 6267.69,3375.4 c 5.88,0 11.38,3.7 13.42,9.6 26.53,76 87.79,117.5 88.41,117.9 36.24,97.6 -163.81,-101.3 -101.83,-127.5"
         style="fill:#e8c0a6;fill-opacity:1;fill-rule:nonzero;stroke:none"
         id="path292" />
      <path
         d="m 4754.72,3438 c 79.37,48 201.12,4.7 201.59,1.2 82.88,17.9 -113.11,87.7 -208.77,25.2 -12.47,-6.8 -6.75,-26.9 7.18,-26.4"
         style="fill:#e8c0a6;fill-opacity:1;fill-rule:nonzero;stroke:none"
         id="path294" />
      <path
         d="m 6709.86,3323.2 h -769.33 c 2.83,-23.4 9.32,-46.2 21.1,-66.7 h 701.45 c 34.55,-0.1 59.05,34.5 46.78,66.7"
         style="fill:#0f2e54;fill-opacity:1;fill-rule:nonzero;stroke:none"
         id="path296" />
      <path
         d="m 4714.3,3256.5 h 285.73 c 36.36,-0.1 65.6,30.5 63.36,66.7 h -412.47 c -2.2,-36.2 27.02,-66.8 63.38,-66.7"
         style="fill:#0f2e54;fill-opacity:1;fill-rule:nonzero;stroke:none"
         id="path298" />
      <path
         d="m 6195.06,8198.5 c 629.16,-479.1 1409.15,-282.8 1855.52,50.5 l 41.55,188.3 c -1029.55,-79.6 -1281,427.1 -1938.83,657.1 l 57.28,-207.6 c 0,0 -22.54,-672.9 -15.52,-688.3"
         style="fill:#ce3932;fill-opacity:1;fill-rule:nonzero;stroke:none"
         id="path300" />
      <path
         d="m 6344.12,3683.2 c -242.52,-90.7 -511.35,-21.6 -511.35,-21.6 3.42,32.8 6.5,66 9.26,99.7 91.58,1132.2 -214.99,2727.8 -246.5,2844 0,0.1 -0.08,0.2 -0.08,0.2 -1.46,5.5 -2.35,7.7 -2.44,5.9 -201.27,-1312.1 -400.68,-2400.2 -494.21,-2908.1 -238.95,-111.5 -481.38,48 -481.38,48 -1.46,45.9 -2.68,90.9 -3.74,135.6 -55.13,881.6 70.96,3586.8 527.42,4115 529.53,-262.1 1257.58,-303 1257.58,-303 121.79,-2306.1 115.86,-3408.3 -54.56,-4015.7"
         style="fill:#1d3f70;fill-opacity:1;fill-rule:nonzero;stroke:none"
         id="path302" />
      <path
         d="m 6076.31,9123 c 30.19,159.2 103.47,445.7 -16.56,516.3 -84.54,46.2 -203.7,-12.2 -193.13,-117.8 9.01,3.7 -13.56,-288.5 -45.04,-365.4 -248.9,-31 424.28,-384 254.73,-33.1"
         style="fill:#f99370;fill-opacity:1;fill-rule:nonzero;stroke:none"
         id="path304" />
      <path
         d="m 5866.42,9535 c -0.13,-4.5 -0.1,-9.1 0.2,-13.5 6.53,2.9 -3.87,-158.7 -23.19,-274 100.24,-67.5 221.92,-64.9 244.84,-64.1 32.61,169.4 86.37,378.1 -28.54,455.9 -78.64,50.4 -192.67,-9.7 -193.31,-104.3"
         style="fill:#e57d61;fill-opacity:1;fill-rule:nonzero;stroke:none"
         id="path306" />
      <path
         d="m 6182.27,3729 c 299.36,1393.2 -5.19,3222.1 -50.92,3235.5 -23.44,-10.9 242.6,-1848.9 50.92,-3235.5"
         style="fill:#163356;fill-opacity:1;fill-rule:nonzero;stroke:none"
         id="path308" />
      <path
         d="m 4867.17,3751.4 21.08,9.4 c 233.68,1482.6 489.83,3257.3 457.39,3282.6 -35.14,-4.9 -309.93,-1774.5 -478.47,-3292"
         style="fill:#163356;fill-opacity:1;fill-rule:nonzero;stroke:none"
         id="path310" />
      <path
         d="m 4851.94,7230.4 c 352.49,-266.1 1216.25,-349 1568.22,-221.8 118.63,50.1 135.23,448.7 121.47,840.3 -21.1,521.9 -146.91,896.8 -388.33,1245.5 -2.97,1.2 -50.55,24 -76.86,28.5 1.16,-47.7 -9.75,-185.5 -254.8,33.2 -1.08,-0.9 -92.36,-3.9 -92.36,-3.9 C 5358.54,8967.4 5199.9,8574.5 5084.2,8126.7 4906.71,7439.9 4782.04,7334.1 4851.94,7230.4"
         style="fill:#eb5648;fill-opacity:1;fill-rule:nonzero;stroke:none"
         id="path312" />
      <path
         d="m 5940.19,3775.3 -98.16,-14 c 91.58,1132.2 -214.99,2727.8 -246.5,2844 19.17,-46.8 144.2,-366.5 237.24,-960.8 101,-645.3 132.51,-1542 107.42,-1869.2"
         style="fill:#163356;fill-opacity:1;fill-rule:nonzero;stroke:none"
         id="path314" />
      <path
         d="m 5729.28,9152.2 c 80.67,-137.3 438.71,-352.1 424.02,-57.8 -3.01,1.4 -35.89,23.3 -76.85,28.5 0.55,-7.8 14.58,-210.2 -254.85,33.3 0.3,-2.1 -41.77,12.4 -92.32,-4"
         style="fill:#ce3932;fill-opacity:1;fill-rule:nonzero;stroke:none"
         id="path316" />
      <path
         d="m 5832.79,3661.7 c 0,0 268.83,-69.2 511.35,21.5 l 31.62,127.2 c 0,0 -303.29,-105.1 -528.8,11.1 -4.32,-53.6 -9.04,-106.9 -14.17,-159.8"
         style="fill:#163356;fill-opacity:1;fill-rule:nonzero;stroke:none"
         id="path318" />
      <path
         d="m 4613.66,3886.9 c 1.08,-44.7 2.3,-89.8 3.78,-135.6 0,0 242.38,-159.5 481.38,-48 0,0 7.83,41.7 21.87,118.2 0,0 -257.36,-76.6 -507.03,65.4"
         style="fill:#163356;fill-opacity:1;fill-rule:nonzero;stroke:none"
         id="path320" />
      <path
         d="m 6021.65,8700.9 c 111.01,0 173.35,20.8 177.19,22.1 l -13.8,40.1 c -1.33,-0.4 -134.86,-44.3 -360.54,0.7 l -8.34,-41.5 c 80.17,-16 149.12,-21.4 205.49,-21.4"
         style="fill:#ce3932;fill-opacity:1;fill-rule:nonzero;stroke:none"
         id="path322" />
      <path
         d="m 6003.5,8537.7 c 138.78,0 221.52,32.2 226.26,34.1 l -15.77,39.4 c -1.51,-0.6 -153.46,-59.1 -389.6,-13.3 l -8.12,-41.7 c 70.1,-13.6 132.94,-18.5 187.23,-18.5"
         style="fill:#ce3932;fill-opacity:1;fill-rule:nonzero;stroke:none"
         id="path324" />
      <path
         d="m 6030.16,8376 c 124.36,0 209.42,34.9 214.71,37.1 l -16.51,39.1 c -1.83,-0.7 -184.14,-75.1 -401.03,0.5 l -14,-40 c 78.95,-27.5 153.06,-36.7 216.83,-36.7"
         style="fill:#ce3932;fill-opacity:1;fill-rule:nonzero;stroke:none"
         id="path326" />
      <path
         d="m 6309.27,9747.8 c 0,0 -9.41,135.4 -56.71,226.6 l -75.71,-42 132.42,-184.6"
         style="fill:#8e4a35;fill-opacity:1;fill-rule:nonzero;stroke:none"
         id="path328" />
      <path
         d="m 6332.2,9351.3 c -114.97,-124.1 -304.17,-151.8 -445.38,-80.7 h -0.05 c -10.52,5.8 -20.52,12.2 -30.13,19.3 h -0.14 c -456.38,413 95.41,1156.5 396.63,548.3 99.98,-170.5 263.02,-256.1 79.07,-486.9"
         style="fill:#f99370;fill-opacity:1;fill-rule:nonzero;stroke:none"
         id="path330" />
      <path
         d="m 6126.97,9694.7 c 3.91,8.8 -0.04,19 -8.83,22.9 -8.78,3.9 -19.08,0 -22.99,-8.8 -3.91,-8.7 0.03,-19 8.82,-22.9 8.79,-3.9 19.09,0.1 23,8.8"
         style="fill:#c16256;fill-opacity:1;fill-rule:nonzero;stroke:none"
         id="path332" />
      <path
         d="m 6271.95,9726.7 c 3.91,8.8 -0.04,19 -8.82,22.9 -8.79,3.9 -19.09,0 -23,-8.8 -3.91,-8.7 0.04,-19 8.82,-22.9 8.79,-3.9 19.08,0.1 23,8.8"
         style="fill:#c16256;fill-opacity:1;fill-rule:nonzero;stroke:none"
         id="path334" />
      <path
         d="m 6234.41,9574.3 c -10.13,-1.8 -20.57,-1.8 -29.5,0.6 -3.52,0.9 -5.61,4.5 -4.68,8 0.92,3.6 4.59,5.6 8.05,4.7 22.42,-5.9 53.11,6.7 56.88,16.9 1.32,3.6 -3.57,6.8 -7.93,8.9 -38.35,18.2 -67.01,87.3 -68.2,90.2 -1.38,3.4 0.23,7.2 3.61,8.6 3.48,1.4 7.22,-0.3 8.59,-3.6 0.28,-0.7 27.92,-67.3 61.67,-83.4 18.4,-8.7 16.36,-20.6 14.63,-25.2 -4.51,-12.3 -23.26,-22.3 -43.12,-25.7"
         style="fill:#c16256;fill-opacity:1;fill-rule:nonzero;stroke:none"
         id="path336" />
      <path
         d="m 6230.74,9880.2 c -96.9,44.7 -265.58,-9.4 -349.59,-13.1 0,0 25.33,-142.3 -114.29,-251.9 -5.38,-132.4 -24.1,-191 119.96,-344.6 h -0.05 c -10.52,5.8 -20.52,12.2 -30.13,19.3 h -0.14 c -439.27,393.6 67.58,1130.7 374.24,590.3"
         style="fill:#e57d61;fill-opacity:1;fill-rule:nonzero;stroke:none"
         id="path338" />
      <path
         d="m 6287.14,10169.3 c -59.7,103.7 -223.29,153.2 -355.04,14.4 -101.43,-106.9 -216.72,-112.1 -208.8,-218.7 -209.06,-108.1 -90.5,-337.9 -90.5,-337.9 l 106.66,18.3 c 117.43,105.3 106.1,250.6 106.1,250.6 h -0.03 c 27.41,0.1 56.14,2.8 81.29,10.6 77.94,24.2 194.31,40 285.1,12 90.78,-28.1 141.94,134.9 75.22,250.7"
         style="fill:#8e4a35;fill-opacity:1;fill-rule:nonzero;stroke:none"
         id="path340" />
      <path
         d="m 5622.03,9540 c 14.47,-54.3 61.8,-89 105.7,-77.4 43.91,11.6 67.76,65.1 53.29,119.5 -14.48,54.4 -61.81,89 -105.71,77.4 -43.9,-11.6 -67.76,-65.1 -53.28,-119.5"
         style="fill:#f99370;fill-opacity:1;fill-rule:nonzero;stroke:none"
         id="path342" />
      <path
         d="m 5723.59,9618.3 c -1.75,0.6 -43.26,14.2 -65.03,-8.2 -5.55,-5.6 -9.06,-13.1 -10.78,-22.1 -0.01,0 -0.01,0 -0.02,-0.1 -0.15,-0.8 -0.41,-1.6 -0.53,-2.4 l -0.01,-0.1 c 0,0 0.01,0 0,0 -2.43,-16.7 1.25,-38.7 11.1,-65.8 1.11,-3 4.22,-4.8 7.31,-4.3 0.38,0.1 0.75,0.2 1.14,0.3 3.42,1.3 5.2,5.1 3.96,8.5 -8,22 -11.55,40 -10.9,53.8 38.29,-4.8 59.53,-46.2 59.74,-46.7 1.31,-2.6 4.23,-4 7.04,-3.6 0.6,0.2 1.19,0.4 1.78,0.6 3.28,1.6 4.62,5.5 3.04,8.8 -1.03,2.1 -24.19,48.4 -69.15,54.2 1.37,3.8 3.18,7.2 5.69,9.8 16,16.4 51.12,5 51.44,4.9 3.5,-1.2 7.18,0.7 8.34,4.1 1.15,3.5 -0.71,7.2 -4.16,8.3"
         style="fill:#c16256;fill-opacity:1;fill-rule:nonzero;stroke:none"
         id="path344" />
      <path
         d="m 6036.33,9714.2 c -1.39,-0.2 -2.85,-0.1 -4.24,0.5 -3.94,1.6 -5.81,6.1 -4.17,10 0.99,2.4 25.19,59 95.84,74.9 4.13,1 8.32,-1.6 9.25,-5.8 0.95,-4.2 -1.67,-8.3 -5.84,-9.2 -62.59,-14.1 -84.08,-63.7 -84.97,-65.8 -1.06,-2.5 -3.34,-4.2 -5.87,-4.6"
         style="fill:#c16256;fill-opacity:1;fill-rule:nonzero;stroke:none"
         id="path346" />
      <path
         d="m 6274.79,9781.4 c -2.36,-0.3 -4.88,0.4 -6.72,2.2 -21.02,20.7 -63.2,16.5 -63.62,16.5 -4.24,-0.5 -8.06,2.6 -8.51,6.8 -0.46,4.3 2.6,8.1 6.85,8.5 2.02,0.2 49.87,5.1 76.17,-20.8 3.03,-3 3.06,-7.9 0.05,-11 -1.18,-1.2 -2.67,-1.9 -4.22,-2.2"
         style="fill:#c16256;fill-opacity:1;fill-rule:nonzero;stroke:none"
         id="path348" />
      <path
         d="m 6274.48,9497.3 -166.33,75.2 c 0,0 -5.59,-88.8 59.82,-109.8 62.5,-20 106.51,34.6 106.51,34.6"
         style="fill:#f9f8f3;fill-opacity:1;fill-rule:nonzero;stroke:none"
         id="path350" />
      <path
         d="m 6275.75,9489.6 c -1.47,-0.2 -3.01,0 -4.47,0.6 l -166.32,75.2 c -3.9,1.8 -5.62,6.4 -3.86,10.3 1.77,3.9 6.37,5.6 10.24,3.8 l 166.34,-75.2 c 3.88,-1.8 5.61,-6.3 3.85,-10.2 -1.11,-2.5 -3.33,-4.1 -5.78,-4.5"
         style="fill:#c16256;fill-opacity:1;fill-rule:nonzero;stroke:none"
         id="path352" />
      <path
         d="m 9970.99,9671.9 -25.26,40.2 -502.02,-314 c 7.41,-30.4 -4.84,-63.5 -32.76,-81.2 -34.24,-21.6 -81.57,-11.3 -103.61,22.6 -22.86,35.3 -12.33,82.3 23.22,104.5 28.19,17.7 63.54,14.3 87.88,-5.7 l 502.02,314 -25.26,40.2 -654.43,-123.9 c -60.91,-11.5 -115.34,-45.2 -152.71,-94.5 l -197.23,-260.4 105.27,-167.5 105.26,-167.6 320.82,63.7 c 60.8,12 114.93,46.2 151.87,95.9 l 396.94,533.7"
         style="fill:#ffffff;fill-opacity:1;fill-rule:nonzero;stroke:none"
         id="path354" />
      <path
         d="m 4431.66,6268.5 -20.76,33.1 c -77.26,122.9 -39.98,285.1 83.27,362.2 L 8800.43,9356.9 9100.98,8878.6 4794.71,6185.5 c -123.25,-77.1 -285.79,-39.9 -363.05,83"
         style="fill:#3a72aa;fill-opacity:1;fill-rule:nonzero;stroke:none"
         id="path356" />
      <path
         d="m 8969.62,8886.8 -219.03,348.6 c -27.38,43.6 -14.17,101.1 29.51,128.4 v 0 c 43.69,27.3 101.3,14.1 128.68,-29.4 l 219.03,-348.6 c 27.39,-43.6 14.17,-101.1 -29.51,-128.4 v 0 c -43.68,-27.3 -101.29,-14.2 -128.68,29.4"
         style="fill:#255084;fill-opacity:1;fill-rule:nonzero;stroke:none"
         id="path358" />
      <path
         d="m 5308.35,7173 -60.07,-37.6 c 0,0 51.36,-53.5 95.68,-74.7 43.29,-20.8 85.73,-41.4 132.82,-56.4 66.36,-84.3 -185.58,4.5 -216.3,8.4 -0.2,-0.5 -0.19,-0.5 -0.38,-1.1 59.65,-44.5 122.03,-85.5 187.7,-120.7 48.44,-103.4 -201.34,58.1 -229.95,71.5 -0.09,-0.3 -0.09,-0.3 -0.18,-0.5 48.46,-52.1 103.74,-97.8 163.46,-136.6 39.58,-108.9 -199.72,74.9 -223.33,97.8 -0.27,-0.1 -0.53,-0.2 -0.8,-0.4 31.85,-46.9 70,-89.5 110.16,-129.7 23.16,-108.3 -160.82,83.2 -179.48,106.5 -18.5,8.5 -119.17,85.7 -180.26,199.5 -20.02,37.3 77.6,130.7 119.8,126.6 0,0 111.27,-7.7 129.93,-11.6 42.97,-2.7 105.99,-27.8 151.2,-41"
         style="fill:#f99370;fill-opacity:1;fill-rule:nonzero;stroke:none"
         id="path360" />
      <path
         d="m 8128.19,8270.9 c 59.02,-61.2 128.62,22.9 38.08,44.6 l 1.06,-1 c -32.46,32.6 -70.29,-13.8 -39.14,-43.6"
         style="fill:#f99370;fill-opacity:1;fill-rule:nonzero;stroke:none"
         id="path362" />
      <path
         d="m 8178.54,8298.3 c 79.41,-56.4 118.45,55.5 33.92,50.5 1.83,-0.4 -7.62,2.9 -5.92,2.5 -38.75,25.7 -62.6,-31.2 -28,-53"
         style="fill:#f99370;fill-opacity:1;fill-rule:nonzero;stroke:none"
         id="path364" />
      <path
         d="m 8232.19,8325.4 30.91,-10 c 43.65,-12.5 45.88,53 9.21,62.3 0.01,0 -30.9,10.1 -30.9,10.1 -43.66,12.5 -45.88,-53 -9.22,-62.4"
         style="fill:#f99370;fill-opacity:1;fill-rule:nonzero;stroke:none"
         id="path366" />
      <path
         d="m 8275.1,8356.2 30.91,-10 c 43.65,-12.5 45.88,53 9.21,62.3 l -30.9,10 c -43.66,12.5 -45.89,-53 -9.22,-62.3"
         style="fill:#f99370;fill-opacity:1;fill-rule:nonzero;stroke:none"
         id="path368" />
      <path
         d="m 5729.28,9152.2 c 0,0 -583.97,54.6 -1104.23,-485.2 -386.26,-400.7 -632.55,-1082.7 281.28,-1571.2 0,0 30.65,98.1 120.89,129.8 0,0 -164.69,386.1 -119.2,593.5 50.32,229.4 333.43,448.7 550.97,718.6 189.89,235.6 270.29,614.5 270.29,614.5"
         style="fill:#ce3932;fill-opacity:1;fill-rule:nonzero;stroke:none"
         id="path370" />
    </g>
  </g>
</svg>
